<svg width="28" height="28" viewBox="0 0 28 28" fill="none" xmlns="http://www.w3.org/2000/svg">
<path d="M13.9998 0.799805C6.71309 0.799805 0.799805 6.71309 0.799805 13.9998C0.799805 14.9842 0.938086 16.0154 1.14668 16.9201L1.58965 18.8373L2.29043 16.9998C4.82168 10.3834 9.94043 4.81465 16.8615 2.22715L18.7318 1.52871L16.7865 1.08105C15.8678 0.867773 14.9561 0.799805 13.9998 0.799805ZM13.9998 1.9998C14.1193 1.9998 14.2178 2.03027 14.335 2.03262C8.77793 4.71387 4.62246 9.3334 2.08887 14.7404C2.07012 14.4873 1.9998 14.2436 1.9998 13.9998C1.9998 7.35996 7.35996 1.9998 13.9998 1.9998ZM21.2654 2.99824L20.9936 3.07793C17.5107 4.10215 7.20527 8.13809 3.08262 21.0451L2.98887 21.3381L3.17168 21.5842C3.91699 22.6014 4.75371 23.5811 5.82012 24.3639L6.48809 24.8537L6.74355 24.0686C10.9811 11.1662 20.7076 7.58731 24.0264 6.75527L24.9334 6.53027L24.3498 5.79902C23.5178 4.76309 22.6061 3.91934 21.4998 3.15996L21.2654 2.99824ZM21.0311 4.34355C21.6873 4.81699 22.2264 5.37012 22.7561 5.93965C18.7529 7.13496 10.1748 11.0771 5.94668 22.8686C5.36543 22.3506 4.8334 21.7717 4.34355 21.1248C8.28809 9.20918 17.5811 5.40059 21.0311 4.34355ZM25.9529 8.35137L25.4209 8.52246C13.9623 12.1834 9.74824 21.8701 8.58809 25.4889L8.41465 26.0209L8.9373 26.2271C9.96152 26.6373 11.0725 26.9889 12.2725 27.1295L12.7318 27.1834L12.9006 26.7521C14.0584 23.792 17.7475 16.4607 26.6936 12.8303L27.1154 12.6592L27.0615 12.2068C26.9209 11.0068 26.5717 9.89355 26.1615 8.86934L25.9529 8.35137ZM25.2076 9.90293C25.4467 10.5686 25.6482 11.2459 25.7654 11.9537C17.1357 15.6615 13.3717 22.5475 12.0123 25.8311C11.3092 25.7139 10.6318 25.5123 9.96855 25.2756C11.2318 21.6311 15.167 13.3928 25.2076 9.90293ZM27.2443 14.7311L26.199 15.2537C24.9428 15.8818 23.042 17.11 20.4217 19.5287L20.4193 19.5311L20.4146 19.5334C17.4475 22.3693 16.0061 24.7506 15.3709 26.2318L14.942 27.2303L16.0178 27.0592C17.6514 26.799 19.2498 26.2576 20.6701 25.4256L27.4904 26.7896L27.1717 25.8123C27.1717 25.8123 26.0631 22.4396 25.442 20.6279C26.2693 19.1912 26.8014 17.5014 27.0592 15.8842L27.2443 14.7311ZM25.5404 17.0654C25.2475 18.2209 24.8631 19.3576 24.2912 20.2834L24.1412 20.5248L24.2326 20.7967C24.7178 22.1982 25.3951 24.2678 25.7021 25.21L20.485 24.1646L20.2834 24.2912C19.3436 24.8725 18.2631 25.2521 17.1498 25.5428C17.8811 24.2186 19.0131 22.5334 21.2373 20.41L21.2396 20.4053C23.1053 18.6873 24.4436 17.7451 25.5404 17.0654Z" fill="#109CF1"/>
</svg>
