<svg width="30" height="30" viewBox="0 0 30 30" fill="none" xmlns="http://www.w3.org/2000/svg">
<path d="M15.0053 0.00390641C9.00344 0.00303159 3.57907 3.5806 1.21675 9.09801L1.02978 9.16L1.10227 9.37745C-2.00808 17.0487 1.68921 25.789 9.36049 28.8993C11.1522 29.6258 13.0675 29.9987 15.0009 29.9977C23.2834 29.9989 29.9987 23.2856 30 15.003C30.0012 6.72051 23.2879 0.00509366 15.0053 0.00390641ZM26.7687 22.562L25.9986 21.7924V19.9997C25.9995 19.9224 25.9823 19.8459 25.9486 19.7763L23.999 15.8826V14.001C23.999 13.8339 23.9156 13.6778 23.7765 13.5851L22.2769 12.5853C22.1593 12.5068 22.014 12.4817 21.8769 12.5163L20.0403 12.9752L16.9555 11.6515L16.5311 8.6781L17.7073 7.50234H20.2323L21.0821 8.77958C21.1588 8.89443 21.2798 8.97248 21.416 8.99503L24.4154 9.49493C24.4958 9.50843 24.5781 9.50187 24.6554 9.47593L27.4178 8.55512C29.7347 13.0014 29.4869 18.3491 26.7687 22.562ZM24.7069 4.92988L23.894 5.47177L21.628 5.01836L20.1578 4.52896C20.0678 4.49841 19.971 4.49453 19.8789 4.51797L18.0202 4.98237L17.2054 4.71093L17.8093 3.50318H19.4999C19.5775 3.50324 19.654 3.48531 19.7234 3.45069L21.453 2.58587C22.6442 3.20761 23.7399 3.99695 24.7069 4.92988ZM9.52551 2.11997L10.7253 2.9198C10.7843 2.95904 10.8509 2.98529 10.9207 2.99678L13.3432 3.4007L13.1068 4.10805L11.8445 4.52946C11.7315 4.56708 11.6356 4.64382 11.5741 4.74592L10.1384 7.13842L7.83237 8.52213L4.43308 9.00753C4.18669 9.04234 4.00348 9.2531 4.00317 9.50193V11.0016C4.00317 11.1342 4.0559 11.2613 4.14963 11.355L5.00296 12.2084V13.0672L2.92339 11.6805L2.16905 9.41745C3.60425 6.13813 6.23476 3.52867 9.52551 2.11997ZM8.10231 18.5101L5.84278 18.0576L5.00296 16.3825V15.2077L6.86557 13.3451L7.55492 14.7243C7.63959 14.8938 7.81287 15.0008 8.00233 15.0008H11.2187L12.5729 17.2578C12.6632 17.4082 12.8258 17.5002 13.0013 17.5003H14.391L14.0411 19.2534L12.1485 21.146C12.0546 21.2397 12.0017 21.3668 12.0015 21.4994V22.7492L10.2019 24.0989C10.076 24.1933 10.0019 24.3415 10.0019 24.4988V26.3044L9.38004 26.0985L8.50223 23.9029V18.9999C8.50229 18.7624 8.33508 18.5575 8.10231 18.5101ZM6.59962 26.1948C1.88629 22.6587 -0.106979 16.549 1.61416 10.9136L2.02958 12.1594C2.06457 12.2648 2.13368 12.3556 2.22604 12.4173L4.71802 14.0785L4.14963 14.6474C4.0559 14.7411 4.00317 14.8682 4.00317 15.0008V16.5005C4.0031 16.578 4.02104 16.6545 4.05565 16.7239L5.05545 18.7235C5.12468 18.8616 5.25384 18.96 5.40537 18.99L7.50494 19.4094V23.9989C7.50487 24.0624 7.51693 24.1254 7.54043 24.1844L8.54022 26.6838C8.59496 26.8204 8.70706 26.9259 8.84666 26.9723L10.3463 27.4722C10.3965 27.4892 10.4489 27.4979 10.5018 27.4982C10.7779 27.4982 11.0017 27.2744 11.0017 26.9983V24.7488L12.8013 23.399C12.9272 23.3046 13.0013 23.1565 13.0013 22.9991V21.7064L14.8544 19.8533C14.9241 19.7835 14.9716 19.6946 14.9909 19.5978L15.4908 17.0983C15.5449 16.8276 15.3693 16.5643 15.0985 16.5102C15.0664 16.5037 15.0337 16.5005 15.0009 16.5005H13.2842L11.93 14.2434C11.8397 14.093 11.6771 14.0011 11.5016 14.001H8.31127L7.45245 12.2778C7.38052 12.134 7.2438 12.0335 7.08502 12.0079C6.92631 11.9805 6.76428 12.0328 6.65161 12.1479L6.00275 12.7942V12.0014C6.00275 11.8688 5.95001 11.7417 5.85628 11.648L5.00296 10.7947V9.93534L8.07332 9.49693C8.13924 9.48737 8.20267 9.46475 8.25978 9.43044L10.7593 7.93076C10.8294 7.88864 10.8881 7.8299 10.9302 7.75979L12.3349 5.41878L13.6592 4.97687C13.8087 4.92782 13.926 4.81053 13.9751 4.66094L14.475 3.16125C14.5616 2.89912 14.4193 2.61636 14.1572 2.52976C14.133 2.52176 14.1082 2.51563 14.0831 2.51138L11.1897 2.02898L10.6813 1.69006C13.8271 0.666144 17.2342 0.792867 20.2953 2.04748L19.382 2.50339H17.5004C17.31 2.50232 17.1356 2.60955 17.0504 2.77983L16.0507 4.77941C15.9275 5.02649 16.0279 5.32667 16.275 5.44983C16.296 5.46033 16.3178 5.46933 16.3401 5.47677L17.8398 5.97666C17.9298 6.00722 18.0266 6.01109 18.1187 5.98766L19.9773 5.52326L21.3391 5.97666C21.3585 5.98366 21.3786 5.98903 21.399 5.99266L23.8985 6.49255C24.0285 6.51905 24.1637 6.49243 24.2739 6.41857L25.4117 5.65973C25.9716 6.28341 26.4749 6.95577 26.9154 7.66881L24.4559 8.48864L21.793 8.04473L20.9131 6.72501C20.8209 6.58672 20.6659 6.50337 20.4997 6.50255H17.5004C17.3678 6.50255 17.2407 6.55529 17.1469 6.64902L15.6472 8.14871C15.5359 8.26 15.4835 8.41728 15.5058 8.57312L16.0057 12.0724C16.0308 12.2454 16.1446 12.3927 16.3056 12.4608L19.8049 13.9605C19.9051 14.0039 20.017 14.0129 20.1228 13.986L21.9079 13.5396L22.9992 14.2684V16.0006C22.9983 16.0779 23.0155 16.1544 23.0492 16.224L24.9988 20.1177V21.9993C24.9988 22.1319 25.0515 22.259 25.1453 22.3528L26.191 23.399C21.5531 29.5811 12.7816 30.8328 6.59962 26.1948Z" fill="#109CF1"/>
</svg>
