<svg width="18" height="18" viewBox="0 0 18 18" fill="none" xmlns="http://www.w3.org/2000/svg">
<rect y="-0.000488281" width="18" height="18" rx="9" fill="#4A4AFF"/>
<path d="M9.00083 11.6127C5.34055 11.6127 3.51758 9.0577 3.51758 9.0577C3.51758 9.0577 4.99605 6.39502 8.92189 6.39502C12.8477 6.39502 14.4913 9.0577 14.4913 9.0577C14.4913 9.0577 12.6539 11.6127 9.00083 11.6127Z" fill="#E6E6F2"/>
<path d="M8.99797 7.23486C8.02189 7.23486 7.23242 8.02433 7.23242 9.00041C7.23242 9.97649 8.02189 10.766 8.99797 10.766C9.97405 10.766 10.7635 9.97649 10.7635 9.00041C10.7635 8.02433 9.97405 7.23486 8.99797 7.23486ZM8.99797 10.1416C8.36639 10.1416 7.85682 9.63199 7.85682 9.00041C7.85682 8.36883 8.36639 7.85927 8.99797 7.85927C9.62955 7.85927 10.1391 8.36883 10.1391 9.00041C10.1319 9.63199 9.62237 10.1416 8.99797 10.1416Z" fill="#4A4AFF"/>
</svg>
