<svg width="18" height="18" viewBox="0 0 18 18" fill="none" xmlns="http://www.w3.org/2000/svg">
<rect width="18" height="18" rx="9" fill="#D30000"/>
<path d="M13.9548 11.9195L11.919 13.9555C11.8037 14.0707 11.4964 13.9555 11.266 13.6866L8.99963 11.4201L6.73334 13.6866C6.50286 13.9555 6.19556 14.0323 6.08033 13.9555L4.0445 11.9195C3.92926 11.8043 4.0445 11.497 4.31338 11.2665L6.57968 9L4.31338 6.73353C4.0445 6.50304 3.96767 6.19573 4.0445 6.08048L6.08033 4.0445C6.19556 3.92926 6.50286 4.0445 6.73334 4.3134L8.99963 6.57987L11.266 4.3134C11.4964 4.0445 11.8037 3.96767 11.919 4.0445L13.9548 6.08048C14.07 6.19573 13.9548 6.46463 13.7243 6.73353L11.458 9L13.7243 11.2665C13.9548 11.5354 14.07 11.8043 13.9548 11.9195Z" fill="#FFE0E0"/>
</svg>
