<svg width="16" height="13" viewBox="0 0 16 13" fill="none" xmlns="http://www.w3.org/2000/svg">
<path d="M15.8137 5.90992C15.5708 5.49883 15.1411 5.25352 14.6643 5.25352H13.4741V2.96596C13.4741 2.4138 13.0295 1.96473 12.4831 1.96473H6.65686C6.64831 1.96473 6.64257 1.96217 6.64025 1.96064L5.59753 0.43257C5.41259 0.16167 5.10766 0 4.78174 0H0.990966C0.444458 0 0 0.449198 0 1.00123V11.9751C0 12.5402 0.455322 13 1.01514 13H12.8077C12.9914 13 13.1501 12.8889 13.2269 12.7276L13.2273 12.7277L15.8699 7.16657C16.0615 6.76355 16.0404 6.29376 15.8137 5.90992ZM0.990966 0.9823H4.78174C4.80981 0.9823 4.82885 0.995218 4.83484 1.00404L5.87915 2.53428C6.05542 2.79265 6.34619 2.94703 6.65686 2.94703H12.4831C12.5159 2.94703 12.5325 2.96314 12.5366 2.9689V5.25352H4.0531C3.52698 5.25352 3.04846 5.56419 2.83398 6.04511L0.937499 10.2975V1.00417C0.94165 0.998416 0.958251 0.9823 0.990966 0.9823ZM15.0306 6.72876L12.5174 12.0176H1.2052L3.68335 6.46105C3.74341 6.32637 3.89209 6.23582 4.0531 6.23582H14.6643C14.8141 6.23582 14.9458 6.30731 15.0166 6.42703C15.0564 6.49444 15.0911 6.60149 15.0306 6.72876Z" fill="#151515"/>
</svg>
