<svg width="18" height="18" viewBox="0 0 18 18" fill="none" xmlns="http://www.w3.org/2000/svg">
<path d="M8.99909 8.28613C7.71938 8.28613 6.69141 9.31407 6.69141 10.5938C6.69141 11.8734 7.71938 12.9014 8.99909 12.9014C10.2788 12.9014 11.3068 11.8734 11.3068 10.5938C11.3278 9.31407 10.2788 8.28613 8.99909 8.28613ZM8.99909 11.8944C8.28581 11.8944 7.69838 11.307 7.69838 10.5938C7.69838 9.88049 8.28581 9.29309 8.99909 9.29309C9.71238 9.29309 10.2998 9.88049 10.2998 10.5938C10.3208 11.307 9.73336 11.8944 8.99909 11.8944Z" fill="#434F63"/>
<path d="M9 0C4.02797 0 0 4.02785 0 8.99974C0 13.9716 4.02797 17.9995 9 17.9995C13.972 17.9995 18 13.9716 18 8.99974C18 4.02785 13.972 0 9 0ZM9 4.55231C16.4056 4.55231 16.4056 7.88789 16.4056 7.88789H12.5455C12.5455 7.88789 12.5455 6.04179 9 6.04179C5.45455 6.04179 5.45454 7.88789 5.45454 7.88789H1.5944C1.5944 7.90887 1.59441 4.55231 9 4.55231ZM1.5944 8.85289V8.24453H5.45454V8.85289H1.5944ZM3.94406 13.4472C3.94406 13.4472 4.09091 7.74104 9.02097 7.74104C13.951 7.74104 14.0769 13.4472 14.0769 13.4472H3.94406ZM16.4266 8.85289H12.5664V8.24453H16.4266V8.85289Z" fill="#434F63"/>
</svg>
