<svg width="34" height="34" viewBox="0 0 34 34" fill="none" xmlns="http://www.w3.org/2000/svg">
<path d="M17.0018 0.529297C7.89968 0.529297 0.53125 7.91085 0.53125 16.9999C0.53125 26.102 7.91282 33.4705 17.0018 33.4705C26.104 33.4705 33.4724 26.0889 33.4724 16.9999C33.4855 7.89771 26.104 0.529297 17.0018 0.529297ZM25.7494 25.8919C25.4079 26.2334 24.9613 26.4173 24.5147 26.4173C24.0813 26.4173 23.6479 26.2597 23.3064 25.9313L17.5666 20.336C16.6472 20.8089 15.6096 21.0847 14.5063 21.0847C10.7893 21.0847 7.78145 18.0769 7.78145 14.3599C7.78145 10.6428 10.7893 7.63503 14.5063 7.63503C18.2233 7.63503 21.2442 10.6428 21.2442 14.3599C21.2442 15.7258 20.8371 16.9867 20.141 18.0375L25.7231 23.4752C26.393 24.1188 26.4061 25.2089 25.7494 25.8919Z" fill="#434F63"/>
<path d="M14.503 9.9209C12.06 9.9209 10.0898 11.8911 10.0898 14.3341C10.0898 16.7771 12.06 18.7472 14.503 18.7472C15.3568 18.7472 16.158 18.4977 16.8278 18.0774C17.2481 17.8147 17.629 17.4863 17.9311 17.1054C18.5353 16.3436 18.9031 15.3848 18.9031 14.3341C18.9162 11.8911 16.946 9.9209 14.503 9.9209Z" fill="#434F63"/>
</svg>
