<svg width="40" height="40" viewBox="0 0 40 40" fill="none" xmlns="http://www.w3.org/2000/svg">
<path d="M20.008 0C8.95974 0 0 8.96332 0 20C0 31.0526 8.95974 40 20.008 40C31.0562 40 40 31.0367 40 20C40 8.96332 31.0562 0 20.008 0Z" fill="#434F63"/>
<path d="M30.3125 12.4379H21.375V10.3754C21.375 10.1706 21.2843 9.97669 21.1261 9.84606C20.9694 9.71544 20.759 9.65906 20.561 9.70031L9.561 11.7628C9.23512 11.8233 9 12.1066 9 12.4379V27.5629C9 27.8929 9.23512 28.1776 9.561 28.2381L20.561 30.3006C20.6023 30.3088 20.6449 30.3129 20.6875 30.3129C20.847 30.3129 21.0024 30.2579 21.1261 30.1548C21.2843 30.0242 21.375 29.8289 21.375 29.6254V27.5629H30.3125C30.692 27.5629 31 27.2549 31 26.8754V13.1254C31 12.7459 30.692 12.4379 30.3125 12.4379ZM18.6209 17.3261L17.9334 23.5149C17.8976 23.8298 17.6501 24.0814 17.3352 24.1199C17.3064 24.1241 17.2789 24.1254 17.25 24.1254C16.9668 24.1254 16.7083 23.9494 16.6065 23.6799L15.1875 19.8959L13.7685 23.6799C13.6585 23.9742 13.3698 24.1543 13.0508 24.1213C12.7386 24.0883 12.4884 23.8463 12.4444 23.5342L11.7569 18.7217C11.7033 18.3463 11.9645 17.9984 12.3399 17.9448C12.7166 17.8898 13.0645 18.1524 13.1181 18.5278L13.4247 20.6783L14.5426 17.6959C14.7434 17.1597 15.6289 17.1597 15.831 17.6959L16.8843 20.5037L17.2541 17.1734C17.2968 16.7967 17.646 16.5272 18.0131 16.5671C18.3912 16.6097 18.6621 16.9493 18.6209 17.3261ZM29.625 26.1879H21.375V24.8129H27.5625C27.942 24.8129 28.25 24.5049 28.25 24.1254C28.25 23.7459 27.942 23.4379 27.5625 23.4379H21.375V22.0629H27.5625C27.942 22.0629 28.25 21.7549 28.25 21.3754C28.25 20.9959 27.942 20.6879 27.5625 20.6879H21.375V19.3129H27.5625C27.942 19.3129 28.25 19.0049 28.25 18.6254C28.25 18.2459 27.942 17.9379 27.5625 17.9379H21.375V16.5629H27.5625C27.942 16.5629 28.25 16.2549 28.25 15.8754C28.25 15.4959 27.942 15.1879 27.5625 15.1879H21.375V13.8129H29.625V26.1879Z" fill="white"/>
</svg>
