<svg width="18" height="18" viewBox="0 0 18 18" fill="none" xmlns="http://www.w3.org/2000/svg">
<circle cx="9" cy="9" r="9" fill="#434F63"/>
<path d="M5.84375 10.8623V13.9996H10.9026C10.9026 13.4475 10.9026 11.1652 10.9026 10.8623C9.91506 10.8623 6.83753 10.8623 5.84375 10.8623ZM7.27512 12.7643H6.64767V12.176H7.27512V12.7643ZM10.0987 12.7643H9.4712V12.176H10.0987V12.7643ZM8.68689 12.7643H8.05944V12.176H8.68689V12.7643Z" fill="white"/>
<path d="M9.17578 7.88932V10.2746H11.4895V14.0001H12.7444C12.7444 13.4616 12.7444 6.0625 12.7444 5.82324C11.5131 6.53607 11.2079 6.71269 9.17578 7.88932V7.88932ZM10.4111 9.29422V8.70599H11.5091V9.29422H10.4111Z" fill="white"/>
<path d="M9.96078 4V5.56863H8.03922V4H4V14H5.2549C5.2549 13.8355 5.2549 10.4655 5.2549 10.2745H8.03922V6.15686H9.96078V6.75549C12.5476 5.25861 6.56247 8.72288 13.3333 4.80294V14H14V4H9.96078ZM6.80392 9.60784H5.23529V9.01961H6.80392V9.60784ZM6.80392 8.35294H5.23529V7.76471H6.80392V8.35294ZM6.80392 7.09804H5.23529V6.5098H6.80392V7.09804ZM6.80392 5.84314H5.23529V5.2549H6.80392V5.84314Z" fill="white"/>
</svg>
