<svg width="18" height="18" viewBox="0 0 18 18" fill="none" xmlns="http://www.w3.org/2000/svg">
<path d="M9.00299 1.5C4.8599 1.5 1.5 4.86124 1.5 9C1.5 13.1447 4.8599 16.5 9.00299 16.5C13.1461 16.5 16.5 13.1388 16.5 9C16.506 4.86124 13.1461 1.5 9.00299 1.5ZM5.29633 12.9713C5.29633 11.5242 6.10833 10.2716 7.29702 9.64593C7.59585 9.48864 7.91848 9.37098 8.25801 9.2998L8.26165 9.29904C7.41868 8.99402 6.81486 8.1866 6.81486 7.23565C6.81486 6.02153 7.79533 5.04067 9.00896 5.04067C10.2226 5.04067 11.2031 6.02153 11.2031 7.23565C11.2031 8.1866 10.5992 8.99402 9.75627 9.29904L9.76006 9.2998C10.0947 9.36716 10.414 9.48422 10.7088 9.63875C10.7814 9.67681 10.8526 9.71714 10.9221 9.75957C11.7531 10.2679 12.3748 11.0933 12.608 12.0682C12.6797 12.3553 12.7156 12.6603 12.7156 12.9713H5.29633Z" fill="#434F63"/>
<path fill-rule="evenodd" clip-rule="evenodd" d="M18 9C18 13.9706 13.9706 18 9 18C4.02944 18 0 13.9706 0 9C0 4.02944 4.02944 0 9 0C13.9706 0 18 4.02944 18 9ZM7.32433 9.6939C7.31748 9.67654 7.30823 9.66047 7.29702 9.64593C6.10833 10.2716 5.29633 11.5242 5.29633 12.9713H12.7156C12.7156 12.6603 12.6797 12.3553 12.608 12.0682C12.3748 11.0933 11.7531 10.2679 10.9221 9.75957C10.8526 9.71714 10.7814 9.67681 10.7088 9.63875C10.695 9.65512 10.6837 9.67362 10.6757 9.6939L9.74412 12.0329L9.32432 10.7634L9.75627 9.96318C9.77936 9.90085 9.76782 9.83213 9.72476 9.7788C9.68214 9.72547 9.61379 9.6939 9.54054 9.6939H8.47738C8.40413 9.6939 8.33577 9.72547 8.29316 9.7788C8.2501 9.83215 8.23857 9.90085 8.26165 9.96318L8.69737 10.7634L8.25588 12.0329L7.32433 9.6939ZM9.76006 9.2998H8.25801L8.26165 9.29904C7.41868 8.99402 6.81486 8.1866 6.81486 7.23565C6.81486 6.02153 7.79533 5.04067 9.00896 5.04067C10.2226 5.04067 11.2031 6.02153 11.2031 7.23565C11.2031 8.1866 10.5992 8.99402 9.75627 9.29904L9.76006 9.2998Z" fill="#434F63"/>
</svg>
