<svg width="18" height="18" viewBox="0 0 18 18" fill="none" xmlns="http://www.w3.org/2000/svg">
<circle cx="9" cy="9" r="9" fill="#434F63"/>
<path d="M10.0547 4.07812C10.0547 3.49655 9.58158 3 9 3C8.41842 3 7.94531 3.49655 7.94531 4.07812C7.94531 4.6597 8.41842 5.13281 9 5.13281C9.58158 5.13281 10.0547 4.6597 10.0547 4.07812Z" fill="white"/>
<path d="M10.7578 6.89062C10.7578 5.92141 9.96921 5.13281 9 5.13281C8.03079 5.13281 7.24219 5.92141 7.24219 6.89062V7.24219H10.7578V6.89062Z" fill="white"/>
<path d="M13.2188 9.35156C13.8012 9.35156 14.2734 8.87936 14.2734 8.29688C14.2734 7.71439 13.8012 7.24219 13.2188 7.24219C12.6363 7.24219 12.1641 7.71439 12.1641 8.29688C12.1641 8.87936 12.6363 9.35156 13.2188 9.35156Z" fill="white"/>
<path d="M13.2188 9.35156C12.2495 9.35156 11.4609 10.1402 11.4609 11.1094V11.4609H15V11.1094C15 10.1402 14.188 9.35156 13.2188 9.35156Z" fill="white"/>
<path d="M4.78125 9.35156C5.36374 9.35156 5.83594 8.87936 5.83594 8.29688C5.83594 7.71439 5.36374 7.24219 4.78125 7.24219C4.19876 7.24219 3.72656 7.71439 3.72656 8.29688C3.72656 8.87936 4.19876 9.35156 4.78125 9.35156Z" fill="white"/>
<path d="M6.53906 11.1094C6.53906 10.1402 5.75046 9.35156 4.78125 9.35156C3.81204 9.35156 3 10.1402 3 11.1094V11.4609H6.53906V11.1094Z" fill="white"/>
<path d="M9 12.8672C9.58249 12.8672 10.0547 12.395 10.0547 11.8125C10.0547 11.23 9.58249 10.7578 9 10.7578C8.41751 10.7578 7.94531 11.23 7.94531 11.8125C7.94531 12.395 8.41751 12.8672 9 12.8672Z" fill="white"/>
<path d="M10.7578 14.625C10.7578 13.6558 9.96921 12.8672 9 12.8672C8.03079 12.8672 7.24219 13.6558 7.24219 14.625V15H10.7578V14.625Z" fill="white"/>
<path d="M5.13281 6.1875C5.13281 5.60592 5.60592 5.13281 6.1875 5.13281H6.53906V4.42969H6.1875C5.21829 4.42969 4.42969 5.21829 4.42969 6.1875V6.53906H5.13281V6.1875Z" fill="white"/>
<path d="M12.8672 6.1875V6.53906H13.5703V6.1875C13.5703 5.21829 12.7817 4.42969 11.8125 4.42969H11.4609V5.13281H11.8125C12.3941 5.13281 12.8672 5.60592 12.8672 6.1875Z" fill="white"/>
<path d="M4.42969 12.1641V12.5156C4.42969 13.4848 5.21829 14.2734 6.1875 14.2734H6.53906V13.5703H6.1875C5.60592 13.5703 5.13281 13.0972 5.13281 12.5156V12.1641H4.42969Z" fill="white"/>
<path d="M13.5703 12.5156V12.1641H12.8672V12.5156C12.8672 13.0972 12.3941 13.5703 11.8125 13.5703H11.4609V14.2734H11.8125C12.7817 14.2734 13.5703 13.4848 13.5703 12.5156Z" fill="white"/>
</svg>
