<svg width="40" height="40" viewBox="0 0 40 40" fill="none" xmlns="http://www.w3.org/2000/svg">
<path d="M20.008 0C8.95974 0 0 8.96332 0 20C0 31.0526 8.95974 40 20.008 40C31.0562 40 40 31.0367 40 20C40 8.96332 31.0562 0 20.008 0ZM25.5879 27.7831C25.4284 29.6013 24.0414 32.9187 19.8485 32.9187C15.6237 32.9187 14.46 29.5694 14.444 27.7831V7.11323H23.1168L23.1008 25.0558C22.9574 25.9809 22.1124 27.7193 19.9601 27.7193C17.8238 27.7193 16.931 25.949 16.7716 25.0239L16.7557 24.9123V12.3126H18.0789V24.8485C18.1427 25.1515 18.5253 26.4115 19.9601 26.4115C21.395 26.4115 21.7298 25.1675 21.7776 24.9123V8.43701H15.7513V27.7671C15.7513 28.1499 15.9426 31.579 19.8326 31.579C23.8501 31.579 24.2328 27.8628 24.2487 27.7034V12.5199H25.5719V27.7831H25.5879Z" fill="#434F63"/>
</svg>
