<svg width="16" height="16" viewBox="0 0 16 16" fill="none" xmlns="http://www.w3.org/2000/svg">
<g clip-path="url(#clip0_241:8496)">
<path d="M11.5 15.9989H1.83337C0.822021 15.9989 0 15.1769 0 14.1655V4.4989C0 3.48755 0.822021 2.66553 1.83337 2.66553H7.5C7.776 2.66553 8 2.88953 8 3.16553C8 3.44153 7.776 3.66553 7.5 3.66553H1.83337C1.37402 3.66553 1 4.03955 1 4.4989V14.1655C1 14.6249 1.37402 14.9989 1.83337 14.9989H11.5C11.9594 14.9989 12.3334 14.6249 12.3334 14.1655V8.4989C12.3334 8.2229 12.5574 7.9989 12.8334 7.9989C13.1094 7.9989 13.3334 8.22229 13.3334 8.4989V14.1655C13.3334 15.1769 12.5114 15.9989 11.5 15.9989Z" fill="#05152F"/>
<path d="M5.84837 10.6507C5.71702 10.6507 5.58897 10.5987 5.49498 10.5041C5.37632 10.386 5.32567 10.216 5.35838 10.0526L5.82969 7.69534C5.84898 7.59805 5.89696 7.50931 5.96629 7.43997L12.8711 0.536041C13.5857 -0.17868 14.7484 -0.17868 15.4637 0.536041C15.8097 0.881989 16.0004 1.34207 16.0004 1.83206C16.0004 2.32205 15.8097 2.78201 15.463 3.12808L8.55907 10.0327C8.48973 10.1027 8.40038 10.1501 8.3037 10.1693L5.947 10.6407C5.91429 10.6474 5.88096 10.6507 5.84837 10.6507ZM8.20567 9.67935H8.21239H8.20567ZM6.78038 8.04007L6.48631 9.51334L7.95897 9.21866L14.7563 2.42142C14.9137 2.26334 15.0004 2.05472 15.0004 1.83206C15.0004 1.60941 14.9137 1.40067 14.7563 1.24271C14.4324 0.917999 13.9037 0.917999 13.5778 1.24271L6.78038 8.04007Z" fill="#05152F"/>
<path d="M14.1664 4.21802C14.0385 4.21802 13.9104 4.16931 13.8131 4.07129L11.9277 2.1853C11.7324 1.98999 11.7324 1.67334 11.9277 1.47803C12.123 1.28271 12.4397 1.28271 12.6351 1.47803L14.5204 3.36401C14.7157 3.55933 14.7157 3.87598 14.5204 4.07129C14.4224 4.1687 14.2944 4.21802 14.1664 4.21802Z" fill="#05152F"/>
</g>
<defs>
<clipPath id="clip0_241:8496">
<rect width="16" height="16" fill="white"/>
</clipPath>
</defs>
</svg>
