<svg width="19" height="18" viewBox="0 0 19 18" fill="none" xmlns="http://www.w3.org/2000/svg">
<path d="M9.15239 17.9994C14.126 17.9994 18.1523 13.9732 18.1523 8.99971C18.1523 4.02618 14.126 0 9.15239 0C4.17873 0 0.152429 4.02618 0.152429 8.99971C0.130898 13.9732 4.17873 17.9994 9.15239 17.9994ZM14.2122 12.6599H4.0926C4.04954 12.6599 4.02801 12.6383 3.98495 12.6383L7.66675 8.95665L9.00167 10.0762C9.04473 10.1193 9.08779 10.1193 9.15239 10.1193C9.19545 10.1193 9.26004 10.0978 9.3031 10.0762L10.638 8.95665L14.3198 12.6383C14.2768 12.6599 14.2337 12.6599 14.2122 12.6599ZM14.6643 5.77015V12.2077C14.6643 12.2508 14.6428 12.2723 14.6428 12.3154L11.0041 8.65522L14.6428 5.61943C14.6428 5.68403 14.6643 5.72709 14.6643 5.77015ZM4.0926 5.31801H14.2122C14.2337 5.31801 14.2768 5.31801 14.2983 5.33954L9.15239 9.62409L4.00648 5.33954C4.02801 5.31801 4.04954 5.31801 4.0926 5.31801ZM3.61892 5.77015C3.61892 5.72709 3.64045 5.68403 3.64045 5.64097L7.27919 8.67675L3.61892 12.3369C3.61892 12.2939 3.59739 12.2723 3.59739 12.2293V5.77015H3.61892Z" fill="#434F63"/>
</svg>
