<svg width="18" height="18" viewBox="0 0 18 18" fill="none" xmlns="http://www.w3.org/2000/svg">
<path d="M9.02271 14.5762C8.72128 14.5762 8.46289 14.8346 8.46289 15.136C8.46289 15.4374 8.72128 15.6958 9.02271 15.6958C9.32415 15.6958 9.58251 15.4374 9.58251 15.136C9.56098 14.8346 9.32415 14.5762 9.02271 14.5762Z" fill="#434F63"/>
<path d="M8.05319 14.9209C7.92401 14.9209 7.83789 15.0286 7.83789 15.1362C7.83789 15.2654 7.94554 15.3515 8.05319 15.3515C8.18238 15.3515 8.2685 15.2439 8.2685 15.1362C8.2685 15.007 8.16085 14.9209 8.05319 14.9209Z" fill="#434F63"/>
<path d="M9.96922 14.9209C9.84003 14.9209 9.75391 15.0286 9.75391 15.1362C9.75391 15.2654 9.86156 15.3515 9.96922 15.3515C10.0984 15.3515 10.1845 15.2439 10.1845 15.1362C10.2061 15.007 10.0984 14.9209 9.96922 14.9209Z" fill="#434F63"/>
<path d="M8.99999 0C4.0263 0 0 4.02622 0 8.99977C0 13.9733 4.0263 17.9995 8.99999 17.9995C13.9737 17.9995 18 13.9733 18 8.99977C18 4.02622 13.9737 0 8.99999 0ZM13.0909 15.0714C13.0909 15.5881 12.6603 16.0187 12.1435 16.0187H5.89953C5.38278 16.0187 4.95215 15.5881 4.95215 15.0714V6.30845C4.93062 6.26539 4.93062 6.20078 4.95215 6.15772V2.92815C4.95215 2.41141 5.38278 1.9808 5.89953 1.9808H12.1435C12.6603 1.9808 13.0909 2.41141 13.0909 2.92815V15.0714Z" fill="#434F63"/>
<path d="M5.59766 14.275H12.423V3.50977H5.59766V14.275ZM6.91105 6.76087C8.91343 6.76087 10.5283 8.37564 10.5283 10.378H10.0115C10.0115 8.67707 8.612 7.27761 6.91105 7.27761V6.76087ZM6.91105 7.66514C8.41822 7.66514 9.62395 8.89237 9.62395 10.378H9.1072C9.1072 9.17227 8.11678 8.18188 6.91105 8.18188V7.66514ZM8.69813 10.3995H8.18138C8.18138 9.71055 7.62157 9.12922 6.91105 9.12922V8.61249C7.90147 8.61249 8.69813 9.40913 8.69813 10.3995Z" fill="#434F63"/>
<path d="M7.34226 2.97164H10.6796C10.8088 2.97164 10.8949 2.86399 10.8949 2.75633C10.8949 2.64867 10.7872 2.54102 10.6796 2.54102H7.34226C7.21308 2.54102 7.12695 2.64867 7.12695 2.75633C7.12695 2.86399 7.21308 2.97164 7.34226 2.97164Z" fill="#434F63"/>
</svg>
