<svg width="18" height="18" viewBox="0 0 18 18" fill="none" xmlns="http://www.w3.org/2000/svg">
<path d="M9 0C4.02631 0 0 4.0262 0 8.99975C0 13.9733 4.02631 17.9995 9 17.9995C13.9737 17.9995 18 13.9733 18 8.99975C18 4.0262 13.9737 0 9 0ZM13.3923 8.26771C12.9832 9.53801 12.3158 10.7007 11.5407 11.7772C11.2823 12.1432 11.0239 12.5092 10.744 12.8537C10.5072 13.1767 10.2488 13.4781 10.012 13.8011C9.68899 14.2101 9.36603 14.6192 9.06459 15.0283H8.93541C8.63397 14.6192 8.31101 14.2101 7.98804 13.8226C7.7512 13.5212 7.49282 13.1982 7.25598 12.8752C6.97607 12.5092 6.7177 12.1647 6.45933 11.7987C5.72727 10.7437 5.08134 9.64567 4.65072 8.43996C3.85407 5.87783 6.0933 3.14345 8.69856 3.01427H9.30143C11.8206 3.12192 14.0383 5.72711 13.3923 8.26771Z" fill="#434F63"/>
<path d="M8.87125 5.51172C7.83776 5.51172 6.99805 6.3514 6.99805 7.38487C6.99805 8.41833 7.83776 9.25802 8.87125 9.25802C9.90474 9.25802 10.7445 8.41833 10.7445 7.38487C10.766 6.3514 9.90474 5.51172 8.87125 5.51172Z" fill="#434F63"/>
</svg>
