<svg width="25" height="24" viewBox="0 0 25 24" fill="none" xmlns="http://www.w3.org/2000/svg">
<circle cx="12.9941" cy="12.0005" r="12" fill="#434F63"/>
<circle cx="12.9941" cy="12.0005" r="9.5" fill="white" stroke="#434F63"/>
<path d="M13.0116 7.02393C12.5651 7.02393 12.1982 7.39074 12.1982 7.83731C12.1982 7.97288 12.2301 8.10048 12.2939 8.21212C12.4295 8.47528 12.7006 8.65072 13.0196 8.65072C13.3306 8.65072 13.6017 8.47528 13.7453 8.21212C13.8011 8.10048 13.841 7.97288 13.841 7.83731C13.825 7.38277 13.4662 7.02393 13.0116 7.02393Z" fill="#434F63"/>
<path d="M13.002 2C7.47564 2 3.00195 6.48167 3.00195 12C3.00195 17.5263 7.48361 22 13.002 22C18.5283 22 23.002 17.5184 23.002 12C23.002 6.4737 18.5283 2 13.002 2ZM13.002 17.5263C11.439 17.5263 11.1359 16.3301 11.1359 16.3301H14.7723C14.7723 16.3301 14.565 17.5263 13.002 17.5263ZM7.57133 15.8437L8.69573 14.0893C8.98281 9.71133 11.0163 8.52314 11.5984 8.26795C11.5745 8.15631 11.5586 8.04466 11.5586 7.92505C11.5586 7.1276 12.2045 6.47369 13.0099 6.47369C13.8153 6.47369 14.4613 7.1276 14.4613 7.92505C14.4613 8.02074 14.4533 8.11643 14.4294 8.20415C17.4437 9.75918 17.3241 14.1053 17.3241 14.1053L18.4405 15.8357H7.57133V15.8437Z" fill="#434F63"/>
</svg>
