<svg width="24" height="24" viewBox="0 0 24 24" fill="none" xmlns="http://www.w3.org/2000/svg">
<circle cx="12" cy="11.9995" r="12" fill="#434F63"/>
<circle cx="12" cy="11.9995" r="9.5" fill="white" stroke="#434F63"/>
<path d="M12 22C17.5263 22 22 17.5201 22 11.996C22 6.4719 17.5183 2 12 2C6.47369 2 2 6.47987 2 11.996C2 17.5281 6.47369 22 12 22ZM17.925 8.61618L13.3158 13.2555L11.9601 14.7222L8.5311 11.5496L9.88676 10.0829L11.8485 11.9004L16.5056 7.21323L17.925 8.61618ZM11.697 6.37625C13.0686 6.37625 14.3285 6.87047 15.3094 7.69151L14.3365 8.67198C13.6108 8.09805 12.6938 7.74731 11.7049 7.74731C9.36044 7.74731 7.45455 9.65245 7.45455 11.996C7.45455 14.3396 9.36044 16.2447 11.7049 16.2447C14.0494 16.2447 15.9553 14.3396 15.9553 11.996C15.9553 11.7888 15.9314 11.5815 15.9075 11.3822L17.0478 10.2344C17.2313 10.7923 17.3349 11.3822 17.3349 11.996C17.3349 15.1048 14.815 17.6158 11.7129 17.6158C8.61085 17.6158 6.09091 15.0969 6.09091 11.996C6.07496 8.89518 8.59489 6.37625 11.697 6.37625Z" fill="#434F63"/>
</svg>
