<svg width="24" height="24" viewBox="0 0 24 24" fill="none" xmlns="http://www.w3.org/2000/svg">
<circle cx="12" cy="12" r="12" fill="#434F63"/>
<circle cx="12" cy="12" r="9.5" fill="white" stroke="#434F63"/>
<path d="M12 2C6.47367 2 2 6.48165 2 12C2 17.5263 6.48164 22 12 22C17.5263 22 22 17.5183 22 12C22.008 6.47368 17.5263 2 12 2ZM5.44499 7.23126H18.563C18.6029 7.23126 18.6347 7.2472 18.6666 7.25518L12 12.8054L5.33335 7.25518C5.37322 7.2472 5.40511 7.23126 5.44499 7.23126ZM4.87879 16.3222C4.86284 16.2743 4.8469 16.2265 4.8469 16.1786V7.82935C4.8469 7.76555 4.86285 7.70972 4.88677 7.6539L9.61562 11.5933L4.87879 16.3222ZM18.563 16.7687H5.44499C5.39714 16.7687 5.34927 16.7528 5.30142 16.7368L10.0702 11.9681L11.8086 13.4195C11.8644 13.4673 11.9282 13.4912 12 13.4912C12.0717 13.4912 12.1356 13.4673 12.1914 13.4195L13.9298 11.9681L18.6985 16.7368C18.6587 16.7528 18.6108 16.7687 18.563 16.7687ZM19.1292 16.3222L14.4003 11.5853L19.1292 7.64593C19.1451 7.70175 19.1611 7.75758 19.1611 7.82137V16.1707C19.1531 16.2265 19.1372 16.2743 19.1292 16.3222Z" fill="#434F63"/>
</svg>
