<svg width="16" height="12" viewBox="0 0 16 12" fill="none" xmlns="http://www.w3.org/2000/svg">
<path d="M14.5 12H1.5C0.671509 12 0 11.38 0 10.6154V1.38462C0 0.619969 0.671509 2.55829e-06 1.5 2.55829e-06H5.80005C6.05859 -0.000560836 6.30725 0.0919496 6.49304 0.25804L8.19995 1.76908C8.22534 1.79252 8.24805 1.81832 8.26746 1.84616H14.5C15.3285 1.84616 16 2.46612 16 3.23077V10.6154C16 11.38 15.3284 12 14.5 12ZM1.5 0.923079C1.22388 0.923079 1 1.12973 1 1.38462V10.6154C1 10.8703 1.22388 11.0769 1.5 11.0769H14.5C14.7761 11.0769 15 10.8703 15 10.6154V3.23077C15 2.97589 14.7761 2.76923 14.5 2.76923H8.26746C7.95569 2.76923 7.66162 2.63492 7.47253 2.40595L5.80005 0.923079H1.5Z" fill="#151515"/>
</svg>
