<svg width="40" height="40" viewBox="0 0 40 40" fill="none" xmlns="http://www.w3.org/2000/svg">
<path d="M13.6765 22.6471C14.0441 22.6471 14.4118 22.3529 14.4118 21.9118C14.4118 21.5441 14.1176 21.1765 13.6765 21.1765C13.3088 21.1765 12.9412 21.4706 12.9412 21.9118C12.9412 22.3529 13.2353 22.6471 13.6765 22.6471ZM15.8088 22.6471C16.1765 22.6471 16.5441 22.3529 16.5441 21.9118C16.5441 21.5441 16.25 21.1765 15.8088 21.1765C15.4412 21.1765 15.0735 21.4706 15.0735 21.9118C15.1471 22.3529 15.4412 22.6471 15.8088 22.6471ZM11.4706 21.25C11.1029 21.25 10.7353 21.5441 10.7353 21.9853C10.7353 22.3529 11.0294 22.7206 11.4706 22.7206C11.8382 22.7206 12.2059 22.4265 12.2059 21.9853C12.2059 21.5441 11.8382 21.25 11.4706 21.25ZM20 0C8.9706 0 0 8.97058 0 20C0 31.0294 8.9706 40 20 40C31.0294 40 40 31.0294 40 20C40 8.89705 31.0294 0 20 0ZM29.8529 25.7353C29.8529 26.0294 29.7059 26.3235 29.4853 26.3235H27.5L27.5735 26.6176L28.0882 28.6029H11.8382L12.3529 26.6176L12.4265 26.3235H10.4412C10.2206 26.3235 10.0735 26.1029 10.0735 25.7353V18.1618C10.0735 17.8676 10.2206 17.5735 10.4412 17.5735H14.1912V11.7647C14.1912 11.5441 14.4118 11.3235 14.7794 11.3235H25.2206C25.5147 11.3235 25.8088 11.5441 25.8088 11.7647V17.5735H29.5588C29.7794 17.5735 29.9265 17.7941 29.9265 18.1618V25.7353H29.8529ZM12.7206 25.147H27.2059V24.1912H12.7206V25.147Z" fill="#434F63"/>
</svg>
